<?xml version="1.0" standalone="no"?>
<!DOCTYPE svg PUBLIC "-//W3C//DTD SVG 20010904//EN"
 "http://www.w3.org/TR/2001/REC-SVG-20010904/DTD/svg10.dtd">
<svg version="1.0" xmlns="http://www.w3.org/2000/svg"
 width="200.000000pt" height="200.000000pt" viewBox="0 0 200.000000 200.000000"
 preserveAspectRatio="xMidYMid meet">

<g transform="translate(0.000000,200.000000) scale(0.100000,-0.100000)"
fill="#000000" stroke="none">
<path d="M0 1000 l0 -1000 1000 0 1000 0 0 1000 0 1000 -1000 0 -1000 0 0
-1000z m940 70 c0 -49 4 -90 8 -90 5 0 21 14 37 30 22 23 38 30 67 30 21 0 38
-3 38 -7 0 -4 -19 -27 -42 -50 l-42 -43 49 -50 49 -50 -40 0 c-33 0 -46 6 -74
35 -19 19 -38 35 -42 35 -4 0 -8 -16 -8 -35 0 -32 -2 -35 -30 -35 l-30 0 0
160 0 160 30 0 30 0 0 -90z m388 -67 l-3 -158 -32 -3 c-19 -2 -33 1 -33 8 0 7
-6 8 -19 0 -55 -29 -125 5 -137 66 -16 86 64 153 137 114 18 -10 19 -7 19 60
l0 70 35 0 36 0 -3 -157z m-1194 -15 l24 -53 22 53 c30 69 54 68 90 -3 l24
-49 24 52 c22 48 26 52 58 52 19 0 34 -4 34 -8 0 -4 -21 -48 -47 -97 -59 -111
-82 -122 -113 -51 -10 25 -21 46 -24 46 -3 0 -14 -21 -25 -46 -31 -70 -53 -60
-113 50 -26 49 -48 92 -48 95 0 4 16 8 35 9 33 3 36 0 59 -50z m455 26 c22
-18 31 -35 31 -55 l0 -29 -65 0 c-66 0 -78 -7 -50 -30 12 -10 21 -10 44 0 23
9 34 9 52 -1 l23 -12 -28 -23 c-41 -36 -108 -33 -147 5 -23 23 -29 38 -29 71
0 89 100 133 169 74z m210 11 c25 -12 51 -57 51 -86 0 -5 -31 -9 -70 -9 -71 0
-83 -7 -54 -31 12 -10 22 -10 46 -1 23 8 36 8 51 0 20 -11 20 -11 -7 -34 -32
-28 -83 -31 -126 -9 -36 19 -50 43 -50 87 1 76 86 121 159 83z m691 5 c9 -5
19 -5 27 1 6 6 22 9 35 7 22 -3 23 -7 26 -100 l3 -98 -36 0 c-19 0 -35 5 -35
10 0 7 -6 7 -19 0 -87 -46 -178 70 -118 151 27 35 84 50 117 29z m198 -35 c15
-24 29 -45 33 -45 3 0 15 20 27 45 20 41 25 45 57 45 19 0 35 -3 35 -6 0 -3
-33 -68 -72 -145 l-73 -139 -37 0 c-21 0 -38 2 -38 5 0 3 14 30 31 60 l31 55
-41 74 c-23 41 -41 80 -41 86 0 5 14 10 30 10 26 0 35 -8 58 -45z m240 -87
c30 -30 0 -75 -43 -64 -19 5 -25 13 -25 35 0 15 3 31 7 34 11 11 48 8 61 -5z"/>
<path d="M1180 961 c-16 -31 4 -63 37 -59 55 7 55 69 0 76 -18 2 -29 -3 -37
-17z"/>
<path d="M500 985 c-11 -13 -7 -15 26 -15 36 1 38 2 20 15 -25 19 -31 19 -46
0z"/>
<path d="M720 985 c-11 -13 -7 -15 25 -15 32 0 36 2 25 15 -7 8 -18 15 -25 15
-7 0 -18 -7 -25 -15z"/>
<path d="M1434 966 c-3 -8 -4 -25 -2 -38 2 -19 9 -23 38 -23 29 0 36 4 38 23
2 13 -2 30 -8 38 -16 18 -59 18 -66 0z"/>
</g>
</svg>